<?xml version="1.0" encoding="UTF-8" standalone="no"?>
<!DOCTYPE svg PUBLIC "-//W3C//DTD SVG 1.1//EN" "http://www.w3.org/Graphics/SVG/1.1/DTD/svg11.dtd">
<!-- Generated by Microsoft Visio, SVG Export wprepair.svg magic-solid -->
<svg xmlns="http://www.w3.org/2000/svg" xmlns:xlink="http://www.w3.org/1999/xlink" xmlns:ev="http://www.w3.org/2001/xml-events"
		xmlns:v="http://schemas.microsoft.com/visio/2003/SVGExtensions/" width="10.9321in" height="2.85134in"
		viewBox="0 0 787.111 205.296" xml:space="preserve" color-interpolation-filters="sRGB" class="st5">
	<v:documentProperties v:langID="1033" v:viewMarkup="false"/>

	<style type="text/css">
	<![CDATA[
		.st1 {fill:#000000;stroke:none;stroke-linecap:butt;stroke-width:1.19531}
		.st2 {fill:none;stroke:none;stroke-linecap:round;stroke-linejoin:round;stroke-width:0.75}
		.st3 {fill:#4054b2;font-family:Arial Black;font-size:8.33334em}
		.st4 {fill:#000000;font-size:1em}
		.st5 {fill:none;fill-rule:evenodd;font-size:12px;overflow:visible;stroke-linecap:square;stroke-miterlimit:3}
	]]>
	</style>

	<g v:mID="0" v:index="1" v:groupContext="foregroundPage">
		<title>magic-solid</title>
		<v:pageProperties v:drawingScale="1" v:pageScale="1" v:drawingUnits="19" v:shadowOffsetX="9" v:shadowOffsetY="-9"/>
		<g id="shape1-1" v:mID="1" v:groupContext="shape" transform="translate(18.2065,-23.8318)">
			<title>Sheet.1</title>
			<path d="M71.98 73.45 L77.05 63.31 L87.2 58.24 L77.05 53.17 L71.98 43.03 L66.91 53.17 L56.77 58.24 L66.91 63.31 L71.98
						 73.45 ZM26.34 93.74 L34.79 76.83 L51.7 68.38 L34.79 59.93 L26.34 43.03 L17.89 59.93 L0.99 68.38 L17.89 76.83
						 L26.34 93.74 ZM137.91 134.31 L129.46 151.21 L112.55 159.66 L129.46 168.11 L137.91 185.02 L146.36 168.11
						 L163.26 159.66 L146.36 151.21 L137.91 134.31 ZM160.29 72.89 L133.4 46 C131.42 44.02 128.82 43.03 126.23
						 43.03 C123.63 43.03 121.04 44.02 119.05 46 L3.96 161.09 C0 165.05 0 171.48 3.96 175.43 L30.85 202.33 C32.83
						 204.31 35.43 205.3 38.02 205.3 C40.62 205.3 43.21 204.31 45.2 202.33 L160.29 87.23 C164.25 83.28 164.25
						 76.85 160.29 72.89 ZM114.91 107.51 L98.78 91.38 L126.22 63.93 L142.36 80.06 L114.91 107.51 Z" class="st1"/>
		</g>
		<g id="shape2-3" v:mID="2" v:groupContext="shape" transform="translate(172.177,-34.7801)">
			<title>Sheet.2</title>
			<desc>wp.repair</desc>
			<v:textBlock v:margins="rect(4,4,4,4)"/>
			<v:textRect cx="298.28" cy="162.076" width="596.56" height="86.44"/>
			<rect x="0" y="118.856" width="596.56" height="86.44" class="st2"/>
			<text x="40" y="192.08" class="st3" v:langID="1043"><v:paragraph v:horizAlign="1"/><v:tabList/>wp.<tspan class="st4">repair</tspan></text>		</g>
	</g>
</svg>
